<svg viewBox="0 0 32 32" fill="none" xmlns="http://www.w3.org/2000/svg"><rect width="32" height="32" rx="6" fill="#181717"/><path d="M16 6C10.48 6 6 10.48 6 16c0 4.42 2.87 8.17 6.84 9.5.5.09.68-.22.68-.48 0-.24-.01-.87-.01-1.7-2.78.6-3.37-1.34-3.37-1.34-.45-1.15-1.1-1.46-1.1-1.46-.9-.62.07-.61.07-.61 1 .07 1.53 1.03 1.53 1.03.89 1.52 2.34 1.08 2.91.83.09-.65.35-1.08.63-1.33-2.22-.25-4.56-1.11-4.56-4.95 0-1.09.39-1.98 1.03-2.68-.1-.25-.45-1.27.1-2.65 0 0 .84-.27 2.75 1.02A9.56 9.56 0 0116 10.8c.85.004 1.71.12 2.51.35 1.91-1.29 2.75-1.02 2.75-1.02.55 1.38.2 2.4.1 2.65.64.7 1.03 1.59 1.03 2.68 0 3.85-2.34 4.7-4.57 4.95.36.31.68.92.68 1.85 0 1.33-.01 2.41-.01 2.74 0 .27.18.58.69.48A10.01 10.01 0 0026 16c0-5.52-4.48-10-10-10z" fill="#fff"/></svg>