<svg width="240" height="48" viewBox="0 0 240 48" fill="none" xmlns="http://www.w3.org/2000/svg">
  <!-- V -->
  <path d="M8 8 L24 40 L32 40 L48 8 L40 8 L28 32 L16 8 Z" fill="#22223B"/>
  
  <!-- A -->
  <path d="M56 40 L64 40 L68 30 L84 30 L88 40 L96 40 L76 8 L68 8 L56 40 Z M70 22 L74 12 L78 12 L82 22 L70 22 Z" fill="#22223B"/>
  
  <!-- R -->
  <path d="M104 8 L104 40 L112 40 L112 26 L128 26 C136 26 140 22 140 16 C140 10 136 8 128 8 L104 8 Z M112 16 L112 18 L126 18 C130 18 132 17 132 16 C132 15 130 16 126 16 L112 16 Z M124 24 L136 40 L144 40 L130 24 L124 24 Z" fill="#22223B"/>
  
  <!-- A -->
  <path d="M152 40 L160 40 L164 30 L180 30 L184 40 L192 40 L172 8 L164 8 L152 40 Z M166 22 L170 12 L174 12 L178 22 L166 22 Z" fill="#22223B"/>
  
  <!-- H -->
  <path d="M200 8 L200 40 L208 40 L208 26 L224 26 L224 40 L232 40 L232 8 L224 8 L224 18 L208 18 L208 8 L200 8 Z" fill="#22223B"/>
  
  <!-- I -->
  <path d="M240 8 L240 40 L248 40 L248 8 L240 8 Z" fill="#22223B"/>
</svg>